HIERARCHY
ROOT	Hips
{
	OFFSET	0.000	0.000	0.000
	CHANNELS	6	Xposition	Yposition	Zposition	Yrotation	Xrotation	Zrotation
	JOINT	Chest
	{
		OFFSET	0.000	8.484	-3.948
		CHANNELS	3	Yrotation	Xrotation	Zrotation
		JOINT	Chest2
		{
			OFFSET	-0.000	24.009	-0.000
			CHANNELS	3	Yrotation	Xrotation	Zrotation
			JOINT	LeftCollar
			{
				OFFSET	7.000	16.208	1.904
				CHANNELS	3	Yrotation	Xrotation	Zrotation
				JOINT	LeftShoulder
				{
					OFFSET	13.608	0.000	0.000
					CHANNELS	3	Yrotation	Xrotation	Zrotation
					JOINT	LeftElbow
					{
						OFFSET	-0.000	-27.102	0.000
						CHANNELS	3	Yrotation	Xrotation	Zrotation
						JOINT	LeftWrist
						{
							OFFSET	-0.000	-28.300	-0.000
							CHANNELS	3	Yrotation	Xrotation	Zrotation
							JOINT	LeftFinger0
							{
								OFFSET	-0.103	-2.078	2.785
								CHANNELS	3	Yrotation	Xrotation	Zrotation
								JOINT	LeftFinger01
								{
									OFFSET	0.000	-3.989	0.000
									CHANNELS	3	Yrotation	Xrotation	Zrotation
									JOINT	LeftFinger02
									{
										OFFSET	0.000	-3.028	0.000
										CHANNELS	3	Yrotation	Xrotation	Zrotation
										End Site
										{
											OFFSET	0.000	-4.000	0.000
										}
									}
								}
							}
							JOINT	LeftFinger1
							{
								OFFSET	-0.103	-7.977	2.543
								CHANNELS	3	Yrotation	Xrotation	Zrotation
								JOINT	LeftFinger11
								{
									OFFSET	0.000	-4.500	0.000
									CHANNELS	3	Yrotation	Xrotation	Zrotation
									JOINT	LeftFinger12
									{
										OFFSET	0.000	-2.768	0.000
										CHANNELS	3	Yrotation	Xrotation	Zrotation
										End Site
										{
											OFFSET	-0.000	-2.713	-0.000
										}
									}
								}
							}
							JOINT	LeftFinger2
							{
								OFFSET	-0.103	-8.132	0.545
								CHANNELS	3	Yrotation	Xrotation	Zrotation
								JOINT	LeftFinger21
								{
									OFFSET	0.000	-4.700	0.000
									CHANNELS	3	Yrotation	Xrotation	Zrotation
									JOINT	LeftFinger22
									{
										OFFSET	0.000	-3.100	0.000
										CHANNELS	3	Yrotation	Xrotation	Zrotation
										End Site
										{
											OFFSET	-0.000	-2.998	-0.000
										}
									}
								}
							}
							JOINT	LeftFinger3
							{
								OFFSET	-0.103	-7.699	-1.421
								CHANNELS	3	Yrotation	Xrotation	Zrotation
								JOINT	LeftFinger31
								{
									OFFSET	0.000	-4.300	0.000
									CHANNELS	3	Yrotation	Xrotation	Zrotation
									JOINT	LeftFinger32
									{
										OFFSET	0.000	-2.773	0.000
										CHANNELS	3	Yrotation	Xrotation	Zrotation
										End Site
										{
											OFFSET	-0.000	-2.700	-0.000
										}
									}
								}
							}
							JOINT	LeftFinger4
							{
								OFFSET	-0.103	-6.948	-3.111
								CHANNELS	3	Yrotation	Xrotation	Zrotation
								JOINT	LeftFinger41
								{
									OFFSET	-0.000	-3.500	-0.000
									CHANNELS	3	Yrotation	Xrotation	Zrotation
									JOINT	LeftFinger42
									{
										OFFSET	0.000	-2.200	0.000
										CHANNELS	3	Yrotation	Xrotation	Zrotation
										End Site
										{
											OFFSET	-0.000	-2.241	-0.000
										}
									}
								}
							}
						}
					}
				}
			}
			JOINT	Neck
			{
				OFFSET	-0.000	16.208	-0.000
				CHANNELS	3	Yrotation	Xrotation	Zrotation
				JOINT	Head
				{
					OFFSET	-0.000	18.883	0.000
					CHANNELS	3	Yrotation	Xrotation	Zrotation
					End Site
					{
						OFFSET	-0.012	20.534	-0.005
					}
				}
			}
			JOINT	RightCollar
			{
				OFFSET	-7.000	16.208	1.904
				CHANNELS	3	Yrotation	Xrotation	Zrotation
				JOINT	RightShoulder
				{
					OFFSET	-13.608	0.000	-0.000
					CHANNELS	3	Yrotation	Xrotation	Zrotation
					JOINT	RightElbow
					{
						OFFSET	0.000	-27.102	0.000
						CHANNELS	3	Yrotation	Xrotation	Zrotation
						JOINT	RightWrist
						{
							OFFSET	0.000	-28.300	-0.000
							CHANNELS	3	Yrotation	Xrotation	Zrotation
							JOINT	RightFinger0
							{
								OFFSET	0.103	-2.078	2.785
								CHANNELS	3	Yrotation	Xrotation	Zrotation
								JOINT	RightFinger01
								{
									OFFSET	0.000	-3.989	0.000
									CHANNELS	3	Yrotation	Xrotation	Zrotation
									JOINT	RightFinger02
									{
										OFFSET	0.000	-3.028	0.000
										CHANNELS	3	Yrotation	Xrotation	Zrotation
										End Site
										{
											OFFSET	0.008	-4.000	0.004
										}
									}
								}
							}
							JOINT	RightFinger1
							{
								OFFSET	0.103	-7.977	2.543
								CHANNELS	3	Yrotation	Xrotation	Zrotation
								JOINT	RightFinger11
								{
									OFFSET	0.000	-4.500	0.000
									CHANNELS	3	Yrotation	Xrotation	Zrotation
									JOINT	RightFinger12
									{
										OFFSET	0.000	-2.768	0.000
										CHANNELS	3	Yrotation	Xrotation	Zrotation
										End Site
										{
											OFFSET	-0.000	-2.713	-0.000
										}
									}
								}
							}
							JOINT	RightFinger2
							{
								OFFSET	0.103	-8.132	0.545
								CHANNELS	3	Yrotation	Xrotation	Zrotation
								JOINT	RightFinger21
								{
									OFFSET	0.000	-4.700	0.000
									CHANNELS	3	Yrotation	Xrotation	Zrotation
									JOINT	RightFinger22
									{
										OFFSET	0.000	-3.100	0.000
										CHANNELS	3	Yrotation	Xrotation	Zrotation
										End Site
										{
											OFFSET	-0.000	-2.998	-0.000
										}
									}
								}
							}
							JOINT	RightFinger3
							{
								OFFSET	0.103	-7.699	-1.421
								CHANNELS	3	Yrotation	Xrotation	Zrotation
								JOINT	RightFinger31
								{
									OFFSET	0.000	-4.300	0.000
									CHANNELS	3	Yrotation	Xrotation	Zrotation
									JOINT	RightFinger32
									{
										OFFSET	0.000	-2.773	0.000
										CHANNELS	3	Yrotation	Xrotation	Zrotation
										End Site
										{
											OFFSET	-0.000	-2.700	-0.000
										}
									}
								}
							}
							JOINT	RightFinger4
							{
								OFFSET	0.103	-6.948	-3.111
								CHANNELS	3	Yrotation	Xrotation	Zrotation
								JOINT	RightFinger41
								{
									OFFSET	0.000	-3.500	0.000
									CHANNELS	3	Yrotation	Xrotation	Zrotation
									JOINT	RightFinger42
									{
										OFFSET	-0.000	-2.200	-0.000
										CHANNELS	3	Yrotation	Xrotation	Zrotation
										End Site
										{
											OFFSET	-0.000	-2.241	-0.000
										}
									}
								}
							}
						}
					}
				}
			}
		}
	}
	JOINT	LeftHip
	{
		OFFSET	8.100	0.000	0.000
		CHANNELS	3	Yrotation	Xrotation	Zrotation
		JOINT	LeftKnee
		{
			OFFSET	-0.000	-43.200	0.000
			CHANNELS	3	Yrotation	Xrotation	Zrotation
			JOINT	LeftAnkle
			{
				OFFSET	0.062	-43.300	0.000
				CHANNELS	3	Yrotation	Xrotation	Zrotation
				JOINT	LeftToe
				{
					OFFSET	-0.000	-6.239	13.169
					CHANNELS	3	Yrotation	Xrotation	Zrotation
					End Site
					{
						OFFSET	0.000	0.000	4.663
					}
				}
			}
		}
	}
	JOINT	RightHip
	{
		OFFSET	-8.100	-0.000	-0.000
		CHANNELS	3	Yrotation	Xrotation	Zrotation
		JOINT	RightKnee
		{
			OFFSET	0.000	-43.200	0.000
			CHANNELS	3	Yrotation	Xrotation	Zrotation
			JOINT	RightAnkle
			{
				OFFSET	-0.063	-43.300	0.000
				CHANNELS	3	Yrotation	Xrotation	Zrotation
				JOINT	RightToe
				{
					OFFSET	0.000	-6.239	13.169
					CHANNELS	3	Yrotation	Xrotation	Zrotation
					End Site
					{
						OFFSET	0.000	0.000	4.663
					}
				}
			}
		}
	}
}
MOTION
Frames:	8
Frame Time:	0.010
0.000	93.997	0.000	-0.000	0.000	-0.000	-0.000	0.000	-0.000	-0.000	-0.000	0.000	-0.000	0.000	0.000	-0.000	-0.000	-270.000	-0.000	0.000	0.000	0.000	-0.000	-0.000	-49.107	339.295	-337.792	-4.106	20.705	-22.208	-0.000	-0.000	-0.000	-0.000	-0.000	-0.000	0.000	0.000	-0.000	-0.000	-0.000	-0.000	-0.000	-0.000	-0.000	0.000	0.000	-0.000	-0.000	-0.000	-0.000	-0.000	-0.000	-0.000	0.000	0.000	-0.000	-0.000	-0.000	-0.000	-0.000	-0.000	-0.000	0.000	0.000	-0.000	-0.000	-0.000	-0.000	-0.000	0.000	0.000	0.000	-0.000	0.000	0.000	0.000	0.000	-0.000	-0.000	-90.000	0.000	-0.000	-0.000	-0.000	-0.000	0.000	-310.894	339.295	-22.207	-355.893	20.705	-337.792	-0.000	-0.000	-0.000	-0.000	-0.000	-0.000	-0.000	-0.000	-0.000	-0.000	-0.000	-0.000	0.000	0.000	0.000	-0.000	0.000	0.000	0.000	0.000	0.000	-0.000	-0.000	-0.000	-0.000	-0.000	-0.000	-0.000	-0.000	-0.000	-0.000	-0.000	-0.000	-0.000	-0.000	-0.000	-0.000	-0.000	-0.000	0.000	-0.000	-0.000	-0.000	-0.000	-0.000	-0.000	-0.000	0.000	-0.000	-0.000	0.000	0.000	-0.000	-0.000	-0.000	-0.000	-0.000	-0.000	-0.000	0.000	-0.000	-0.000	0.000	
0.000	93.997	0.000	-0.000	0.000	-0.000	-0.000	0.000	-0.000	-0.000	-0.000	0.000	-0.000	0.000	0.000	-0.000	-0.000	-270.000	-0.000	0.000	0.000	0.000	-0.000	-0.000	-49.107	339.295	-337.792	-4.106	20.705	-22.208	-0.000	-0.000	-0.000	-0.000	-0.000	-0.000	0.000	0.000	-0.000	-0.000	-0.000	-0.000	-0.000	-0.000	-0.000	0.000	0.000	-0.000	-0.000	-0.000	-0.000	-0.000	-0.000	-0.000	0.000	0.000	-0.000	-0.000	-0.000	-0.000	-0.000	-0.000	-0.000	0.000	0.000	-0.000	-0.000	-0.000	-0.000	-0.000	0.000	0.000	0.000	-0.000	0.000	0.000	0.000	0.000	-0.000	-0.000	-90.000	0.000	-0.000	-0.000	-0.000	-0.000	0.000	-310.894	339.295	-22.207	-355.893	20.705	-337.792	-0.000	-0.000	-0.000	-0.000	-0.000	-0.000	-0.000	-0.000	-0.000	-0.000	-0.000	-0.000	0.000	0.000	0.000	-0.000	0.000	0.000	0.000	0.000	0.000	-0.000	-0.000	-0.000	-0.000	-0.000	-0.000	-0.000	-0.000	-0.000	-0.000	-0.000	-0.000	-0.000	-0.000	-0.000	-0.000	-0.000	-0.000	0.000	-0.000	-0.000	-0.000	-0.000	-0.000	-0.000	-0.000	0.000	-0.000	-0.000	0.000	0.000	-0.000	-0.000	-0.000	-0.000	-0.000	-0.000	-0.000	0.000	-0.000	-0.000	0.000	
0.000	93.997	-0.000	-0.000	0.000	-0.000	-0.000	-0.000	-0.000	0.000	-0.000	-0.000	0.000	0.000	0.000	-0.000	0.000	-270.000	-180.000	290.000	-180.000	-295.626	347.332	-127.403	-23.744	350.353	-346.769	-353.285	340.749	-6.643	0.000	0.000	-4.193	-6.661	0.290	-9.916	0.000	0.000	-9.949	0.000	-0.000	-6.633	-3.033	359.402	-22.293	0.000	-0.000	-22.337	0.000	0.000	-14.891	-1.241	354.312	-30.764	0.000	0.000	-28.903	0.000	0.000	-19.269	-351.808	351.193	-37.664	0.000	-0.000	-32.530	-0.000	0.000	-21.686	-0.000	-0.000	-0.000	-0.000	-0.000	-0.000	0.000	0.000	0.000	-0.000	0.000	-90.000	-180.000	290.000	-180.000	-91.015	3.057	-215.818	-327.456	36.694	-348.032	-11.349	355.458	-319.826	-0.000	0.000	-333.156	-3.595	3.932	-327.874	0.000	-0.000	-325.352	0.000	0.000	-336.901	-1.649	0.629	-318.259	0.000	-0.000	-318.406	0.000	0.000	-332.270	-0.881	353.421	-312.631	0.000	-0.000	-313.761	0.000	-0.000	-329.174	-16.255	353.347	-298.684	0.000	-0.000	-304.874	0.000	-0.000	-323.249	0.000	-0.000	-0.000	0.000	0.000	-0.000	-0.000	0.000	0.000	-0.000	-0.000	0.000	0.000	-0.000	-0.000	-0.000	-0.000	-0.000	-0.000	0.000	-0.000	0.000	-0.000	-0.000	
0.000	93.997	-0.000	-0.000	0.000	-0.000	-0.000	-0.000	-0.000	0.000	-0.000	-0.000	0.000	0.000	0.000	-0.000	0.000	-270.000	-180.000	290.000	-180.000	-295.097	346.716	-129.279	-23.867	350.370	-346.946	-352.984	341.056	-7.297	-0.000	0.000	-4.615	-7.128	0.287	-11.418	0.000	0.000	-11.446	0.000	-0.000	-7.631	-2.986	359.375	-23.639	0.000	-0.000	-23.689	0.000	0.000	-15.793	-0.954	354.309	-31.620	0.000	0.000	-29.645	0.000	0.000	-19.763	-351.665	351.227	-37.858	0.000	-0.000	-32.643	-0.000	0.000	-21.762	-0.000	-0.000	-0.000	-0.000	-0.000	-0.000	0.000	0.000	0.000	-0.000	0.000	-90.000	-180.000	290.000	-180.000	-90.516	1.945	-215.800	-327.398	36.701	-348.026	-11.213	355.363	-319.830	-0.000	0.000	-333.172	-3.584	3.945	-327.741	0.000	-0.000	-325.308	0.000	0.000	-336.872	-1.569	0.599	-318.230	0.000	0.000	-318.373	0.000	0.000	-332.249	-0.648	353.314	-312.657	0.000	-0.000	-313.699	0.000	-0.000	-329.133	-16.109	353.254	-298.788	0.000	-0.000	-304.942	0.000	0.000	-323.295	0.000	-0.000	-0.000	0.000	0.000	-0.000	-0.000	0.000	0.000	-0.000	-0.000	0.000	0.000	-0.000	-0.000	-0.000	-0.000	-0.000	-0.000	0.000	-0.000	0.000	-0.000	-0.000	
0.000	93.997	-0.000	-0.000	0.000	-0.000	-0.000	-0.000	-0.000	0.000	-0.000	-0.000	0.000	0.000	0.000	-0.000	0.000	-270.000	-180.000	290.000	-180.000	-294.647	345.896	-131.174	-23.998	350.385	-347.157	-352.676	341.410	-8.055	0.000	-0.000	-5.105	-7.502	0.279	-12.738	0.000	-0.000	-12.762	0.000	0.000	-8.508	-2.876	359.366	-24.874	0.000	-0.000	-24.924	0.000	0.000	-16.616	-0.685	354.322	-32.312	0.000	0.000	-30.238	0.000	0.000	-20.158	-351.505	351.295	-37.845	0.000	-0.000	-32.565	-0.000	0.000	-21.710	-0.000	-0.000	-0.000	-0.000	-0.000	-0.000	0.000	0.000	0.000	-0.000	0.000	-90.000	-180.000	290.000	-180.000	-90.073	0.787	-215.731	-327.348	36.711	-348.034	-11.070	355.271	-319.872	-0.000	0.000	-333.213	-3.573	3.958	-327.618	0.000	-0.000	-325.279	0.000	-0.000	-336.853	-1.506	0.575	-318.214	0.000	-0.000	-318.352	0.000	0.000	-332.235	-0.399	353.197	-312.666	0.000	-0.000	-313.612	0.000	-0.000	-329.075	-15.972	353.166	-298.855	0.000	-0.000	-304.976	0.000	-0.000	-323.317	0.000	-0.000	-0.000	0.000	0.000	-0.000	-0.000	0.000	0.000	-0.000	-0.000	0.000	0.000	-0.000	-0.000	-0.000	-0.000	-0.000	-0.000	0.000	-0.000	0.000	-0.000	-0.000	
0.000	93.997	-0.000	-0.000	0.000	-0.000	-0.000	-0.000	-0.000	0.000	-0.000	-0.000	0.000	0.000	0.000	-0.000	0.000	-270.000	-180.000	290.000	-180.000	-294.296	344.930	-133.104	-24.123	350.399	-347.371	-352.393	341.761	-8.804	0.000	0.000	-5.592	-7.686	0.282	-13.878	0.000	0.000	-13.900	0.000	-0.000	-9.267	-2.674	359.384	-25.923	0.000	-0.000	-25.965	0.000	0.000	-17.310	-0.337	354.381	-32.835	0.000	0.000	-30.666	0.000	0.000	-20.444	-351.347	351.371	-37.749	0.000	-0.000	-32.420	-0.000	0.000	-21.613	-0.000	-0.000	-0.000	-0.000	-0.000	-0.000	0.000	0.000	0.000	-0.000	0.000	-90.000	-180.000	290.000	-180.000	-89.680	-0.442	-215.567	-327.296	36.723	-348.046	-10.919	355.176	-319.923	-0.000	0.000	-333.260	-3.565	3.968	-327.521	0.000	-0.000	-325.269	0.000	0.000	-336.846	-1.482	0.566	-318.219	0.000	-0.000	-318.354	0.000	0.000	-332.236	-0.180	353.094	-312.663	0.000	-0.000	-313.522	-0.000	-0.000	-329.015	-15.882	353.109	-298.907	0.000	0.000	-305.002	-0.000	-0.000	-323.335	0.000	-0.000	-0.000	0.000	0.000	-0.000	-0.000	0.000	0.000	-0.000	-0.000	0.000	0.000	-0.000	-0.000	-0.000	-0.000	-0.000	-0.000	0.000	-0.000	0.000	-0.000	-0.000	
0.000	93.997	-0.000	-0.000	0.000	-0.000	-0.000	-0.000	-0.000	0.000	-0.000	-0.000	0.000	0.000	0.000	-0.000	0.000	-270.000	-180.000	290.000	-180.000	-294.067	343.891	-134.988	-24.239	350.411	-347.565	-352.134	342.088	-9.487	0.000	0.000	-6.037	-7.699	0.301	-14.900	0.000	-0.000	-14.923	0.000	0.000	-9.948	-2.429	359.422	-26.767	0.000	0.000	-26.794	0.000	0.000	-17.863	0.061	354.471	-33.241	0.000	0.000	-30.980	0.000	0.000	-20.653	-351.193	351.441	-37.698	0.000	-0.000	-32.327	-0.000	0.000	-21.551	-0.000	-0.000	-0.000	-0.000	-0.000	-0.000	0.000	0.000	0.000	-0.000	0.000	-90.000	-180.000	290.000	-180.000	-89.337	-1.696	-215.349	-327.236	36.735	-348.051	-10.755	355.068	-319.960	-0.000	0.000	-333.300	-3.556	3.979	-327.419	0.000	-0.000	-325.235	0.000	0.000	-336.824	-1.497	0.572	-318.209	0.000	0.000	-318.345	-0.000	-0.000	-332.230	-0.021	353.017	-312.646	0.000	-0.000	-313.438	0.000	-0.000	-328.959	-15.825	353.073	-298.961	-0.000	-0.000	-305.037	0.000	-0.000	-323.358	0.000	-0.000	-0.000	0.000	0.000	-0.000	-0.000	0.000	0.000	-0.000	-0.000	0.000	0.000	-0.000	-0.000	-0.000	-0.000	-0.000	-0.000	0.000	-0.000	0.000	-0.000	-0.000	
0.000	93.997	-0.000	-0.000	0.000	-0.000	-0.000	-0.000	-0.000	0.000	-0.000	-0.000	0.000	0.000	0.000	-0.000	0.000	-270.000	-180.000	290.000	-180.000	-294.022	342.838	-136.740	-24.333	350.420	-347.734	-351.931	342.366	-10.069	0.000	0.000	-6.418	-7.649	0.325	-15.763	0.000	0.000	-15.787	0.000	0.000	-10.525	-2.204	359.462	-27.428	0.000	-0.000	-27.438	0.000	0.000	-18.292	0.338	354.531	-33.561	0.000	0.000	-31.253	0.000	0.000	-20.835	-351.082	351.484	-37.720	0.000	-0.000	-32.336	-0.000	0.000	-21.557	-0.000	-0.000	-0.000	-0.000	-0.000	-0.000	0.000	0.000	0.000	-0.000	0.000	-90.000	-180.000	290.000	-180.000	-88.999	-3.126	-215.046	-327.168	36.750	-348.064	-10.559	354.945	-320.022	-0.000	0.000	-333.358	-3.544	3.993	-327.283	0.000	0.000	-325.185	0.000	-0.000	-336.790	-1.495	0.571	-318.194	0.000	0.000	-318.329	0.000	-0.000	-332.220	0.151	352.940	-312.672	0.000	-0.000	-313.394	0.000	-0.000	-328.930	-15.724	353.014	-299.089	0.000	-0.000	-305.137	0.000	-0.000	-323.425	0.000	-0.000	-0.000	0.000	0.000	-0.000	-0.000	0.000	0.000	-0.000	-0.000	0.000	0.000	-0.000	-0.000	-0.000	-0.000	-0.000	-0.000	0.000	-0.000	0.000	-0.000	-0.000	
